<!-- Generator: Adobe Illustrator 19.2.1, SVG Export Plug-In  -->
<svg version="1.1"
	 xmlns="http://www.w3.org/2000/svg" xmlns:xlink="http://www.w3.org/1999/xlink" xmlns:a="http://ns.adobe.com/AdobeSVGViewerExtensions/3.0/"
	 x="0px" y="0px" width="130.7px" height="3.9px" viewBox="0 0 130.7 3.9" enable-background="new 0 0 130.7 3.9"
	 xml:space="preserve">
<defs>
</defs>
<g>
	<g>
		<g>
			<g>
				<g>
					<path fill="#D9342A" d="M130.6,0.7c0.2,0,0.1-0.2,0.2-0.2C130.4,0.5,130.6,0.8,130.6,0.7z"/>
					<polygon fill="#D9342A" points="127.4,1.2 127.5,1.1 127,1.3 					"/>
					<path fill="#D9342A" d="M124.4,1.2c0.3,0.4,1.1-0.1,1.6,0.1l0.1,0.1l0.2-0.3C125.7,1.1,124.9,1.3,124.4,1.2z"/>
					<path fill="#D9342A" d="M122.8,0.4c0.1,0.1-0.3,0.1,0.4,0c0,0,0,0-0.1,0C123.1,0.4,123,0.4,122.8,0.4z"/>
					<path fill="#D9342A" d="M123.1,0.4C123.5,0.4,122.9,0.3,123.1,0.4L123.1,0.4z"/>
					<path fill="#D9342A" d="M121.7,0.5l0.4-0.1c-0.1-0.1-0.5-0.1-0.3-0.2C121.4,0.3,121.5,0.4,121.7,0.5z"/>
					<path fill="#D9342A" d="M121.3,0.8l0.2-0.1C121.5,0.7,121.4,0.7,121.3,0.8z"/>
					<path fill="#D9342A" d="M122,0.6l-0.5,0.1c0.1,0.1,0.1,0.2,0.2,0C121.7,0.8,121.8,0.7,122,0.6z"/>
					<path fill="#D9342A" d="M122.2,0.7c0.2,0.1,0.5,0.1,0.1,0.2C123.1,0.9,123,0.6,122.2,0.7z"/>
					<path fill="#D9342A" d="M124.3,1.6l0.3,0.1l0.3-0.1C124.7,1.6,124.3,1.4,124.3,1.6z"/>
					<path fill="#D9342A" d="M119.1,0.3c0,0.1,0.1,0.2,0.2,0.3l0.3-0.1C119.4,0.5,119.1,0.4,119.1,0.3z"/>
					<path fill="#D9342A" d="M119.3,0.6l-0.5,0.1C119.2,0.8,119.3,0.7,119.3,0.6z"/>
					<polygon fill="#D9342A" points="121.2,1.2 122,0.9 121.1,1.2 					"/>
					<polygon fill="#D9342A" points="117.4,0.3 117.6,0.1 117.2,0.4 					"/>
					<path fill="#D9342A" d="M116.2,0.3c0.2-0.1-0.3-0.2-0.1-0.3c-0.3,0-0.6,0.2-0.8,0.3C115.6,0.2,115.9,0.2,116.2,0.3z"/>
					<path fill="#D9342A" d="M114.9,0.4c0.1,0,0.3-0.1,0.4-0.2C115.2,0.3,115.1,0.3,114.9,0.4z"/>
					<path fill="#D9342A" d="M118.1,0.7c0,0-0.1-0.2-0.4-0.2l0.2,0.2C117.9,0.7,118,0.7,118.1,0.7z"/>
					<path fill="#D9342A" d="M117.9,0.7L117.9,0.7c-0.2,0-0.3,0-0.4,0C117.5,0.7,117.7,0.7,117.9,0.7z"/>
					<path fill="#D9342A" d="M118.1,0.7C118.1,0.7,118.1,0.7,118.1,0.7C118.1,0.7,118.1,0.7,118.1,0.7z"/>
					<path fill="#D9342A" d="M120,1c-0.3,0.1-0.8,0.2-0.3,0.4C119.9,1.2,119.6,1.1,120,1z"/>
					<path fill="#D9342A" d="M118.3,1l0.5,0c0-0.1-0.1-0.1,0-0.2L118.3,1z"/>
					<polygon fill="#D9342A" points="118.1,1 118.3,1 118.1,1 					"/>
					<path fill="#D9342A" d="M115.8,0.6c-0.2,0.1-0.4,0.1-0.7,0.1c0.3,0,0.6,0.1,0.8,0.1C115.9,0.7,116.1,0.6,115.8,0.6z"/>
					<path fill="#D9342A" d="M116.8,0.7C116.8,0.7,116.8,0.7,116.8,0.7C116.8,0.7,116.8,0.7,116.8,0.7z"/>
					<path fill="#D9342A" d="M112.5,0.7C112.5,0.8,112.5,0.8,112.5,0.7C112.6,0.8,112.6,0.8,112.5,0.7L112.5,0.7z"/>
					<path fill="#D9342A" d="M115.9,0.8c0.2,0,0.3,0,0.5-0.1C116.2,0.8,116.1,0.8,115.9,0.8C115.9,0.8,115.9,0.9,115.9,0.8z"/>
					<path fill="#D9342A" d="M114.2,0.5c0.1,0,0.2,0.1,0.4,0.1C114.5,0.6,114.3,0.5,114.2,0.5z"/>
					<path fill="#D9342A" d="M116.7,0.6C116.7,0.6,116.7,0.6,116.7,0.6C116.6,0.6,116.6,0.6,116.7,0.6z"/>
					<path fill="#D9342A" d="M116.7,0.6c-0.1,0-0.2,0.1-0.3,0.1C116.5,0.8,116.6,0.7,116.7,0.6C116.7,0.7,116.7,0.7,116.7,0.6z"/>
					<path fill="#D9342A" d="M111.7,2.1c0-0.2,0.6-0.4,1.1-0.2c0.5-0.1,0.2-0.8-0.2-1.2c0,0.1,0,0.2-0.5,0.3
						c0.2,0.1,1.1,0.3,0.7,0.4c-0.6,0.1-0.5-0.1-0.8-0.2c0.3,0.2-0.8,0.4-0.7,0.7l0.6-0.1C111.8,2,111.6,2.1,111.7,2.1z"/>
					<path fill="#D9342A" d="M113.5,0.8l0.2,0c-0.2,0-0.4-0.1-0.7-0.3c-0.3,0.1-0.4,0.2-0.4,0.2L113.5,0.8L113.5,0.8z"/>
					<path fill="#D9342A" d="M114.5,0.8c-0.2,0.2-0.6,0.3-0.3,0.5c0.6,0,0.4-0.2,0.8-0.3C114,1.1,115.2,0.9,114.5,0.8
						c0.2,0,0.4,0,0.5,0c-0.2,0-0.3-0.1-0.5-0.1c0,0,0,0,0,0l0,0c0,0,0,0,0,0C114.6,0.7,114.7,0.7,114.5,0.8
						C114.6,0.7,114.6,0.7,114.5,0.8C114.6,0.7,114.6,0.7,114.5,0.8C114.3,0.7,114.5,0.7,114.5,0.8c0-0.1,0.1-0.1,0.1-0.1
						c0,0,0,0,0,0l-0.9,0.1C113.9,0.8,114.1,0.8,114.5,0.8z"/>
					<path fill="#D9342A" d="M119.2,1.9C119.2,1.8,119.2,1.8,119.2,1.9C119.2,1.8,119.1,1.9,119.2,1.9z"/>
					<path fill="#D9342A" d="M118.9,1.7c0.1,0,0.1-0.1,0.3-0.1c0.2,0.1,0,0.1,0,0.2c0.1-0.1,0.5-0.2,0-0.3l-0.1,0
						c-0.4-0.1-0.9-0.3-0.8-0.4C118.5,1.4,118.6,1.5,118.9,1.7z"/>
					<path fill="#D9342A" d="M116.7,1.3l-0.8,0.1l0.4,0.2l0-0.1C116.7,1.5,116.6,1.4,116.7,1.3z"/>
					<polygon fill="#D9342A" points="112.4,0.6 112.5,0.4 112.1,0.7 					"/>
					<polygon fill="#D9342A" points="111.4,0.7 111.4,0.5 111.2,0.6 					"/>
					<path fill="#D9342A" d="M54.2,3.1L54,3.2C54.1,3.2,54.2,3.1,54.2,3.1z"/>
					<path fill="#D9342A" d="M55.9,3.1L55.9,3.1C55.9,3.1,55.8,3.1,55.9,3.1z"/>
					<path fill="#D9342A" d="M86.5,0.7c-0.3-0.2-0.7-0.5-0.7-0.2L86,0.7C86.2,0.6,86.4,0.6,86.5,0.7z"/>
					<path fill="#D9342A" d="M69.5,2C69.5,2,69.6,2,69.5,2c0.2,0,0.3-0.1,0.3-0.1C69.7,1.9,69.6,1.9,69.5,2z"/>
					<path fill="#D9342A" d="M69.3,2.9l-0.4-0.1C68.9,2.8,69.1,2.8,69.3,2.9z"/>
					<path fill="#D9342A" d="M45.2,3.3l-0.3,0.2C45.3,3.6,45.2,3.5,45.2,3.3z"/>
					<path fill="#D9342A" d="M101,0.7c-0.3-0.1-0.5-0.1-0.7-0.1C100.7,0.7,100.9,0.9,101,0.7z"/>
					<path fill="#D9342A" d="M54.9,0.8c-0.1,0-0.2,0.1-0.2,0.1C54.8,0.9,54.9,0.9,54.9,0.8z"/>
					<path fill="#D9342A" d="M99.5,0.6c0.1,0,0.1,0,0.2,0.1c0.2,0,0.4-0.1,0.7-0.1C100.1,0.5,99.8,0.5,99.5,0.6z"/>
					<path fill="#D9342A" d="M12.3,3.2C12.3,3.2,12.3,3.2,12.3,3.2C12.3,3.2,12.3,3.2,12.3,3.2z"/>
					<path fill="#D9342A" d="M2.8,1C2.9,1,3,1,3.2,1C3.1,0.9,3,0.9,2.8,1z"/>
					<path fill="#D9342A" d="M107.3,0.6C107.5,0.6,107.4,0.5,107.3,0.6L107.3,0.6z"/>
					<path fill="#D9342A" d="M108.4,1.4c0,0-0.1,0.1-0.1,0.1C108.3,1.5,108.3,1.4,108.4,1.4z"/>
					<path fill="#D9342A" d="M97.3,2C97.3,2,97.3,2,97.3,2C97.4,2,97.4,2,97.3,2z"/>
					<path fill="#D9342A" d="M107.7,0.7c-0.1,0-0.2,0-0.3-0.1C107.4,0.6,107.5,0.6,107.7,0.7z"/>
					<path fill="#D9342A" d="M107.6,0.6c0.1,0,0.1,0,0.2,0C107.8,0.5,107.8,0.5,107.6,0.6z"/>
					<path fill="#D9342A" d="M107,0.6c0.1,0,0.2,0,0.3,0c0,0-0.1,0,0,0C107.3,0.6,107.2,0.6,107,0.6z"/>
					<path fill="#D9342A" d="M29.9,2.6C29.9,2.6,29.9,2.6,29.9,2.6C29.7,2.7,29.8,2.6,29.9,2.6z"/>
					<path fill="#D9342A" d="M80.9,2.9C80.9,2.9,81,2.9,80.9,2.9C81,2.9,80.9,2.9,80.9,2.9L80.9,2.9z"/>
					<path fill="#D9342A" d="M80.2,3.1c0.3-0.3,0.5-0.2,0.8-0.2l-0.3-0.6L80.2,3.1z"/>
					<path fill="#D9342A" d="M50.3,3.2l0.5,0.2c-0.7,0.3-1.1,0.2-0.6,0.5c0.1-0.7,2.1-0.1,2.2-0.7l0.4,0.1c-0.1,0-0.1,0-0.2,0
						c0.7,0.3,0.5-0.5,1.4-0.4c0.3,0.1,0.5,0.2,0.3,0.2l0.7-0.2c0.2,0,0.2,0.1,0,0.1L56,3l0,0c0.2-0.1,0.5-0.3,0.7-0.3
						c0.3,0.1-0.1,0.1-0.1,0.2l0.6-0.2C57.4,2.9,56.9,3,56.5,3C57,3.7,57,2.8,58.1,3.2l-0.6,0.1c0.4,0.4,0.8,0.2,1.4,0.5
						c-0.1-0.1-1.3-0.6-0.6-0.8c0.2,0.1,0.4,0.1,0.8-0.1c0,0.2,0.3,0.2,0.8,0.2l0,0.3c0.5-0.1,0.4-0.3,0.7-0.4
						c0.5,0,0.6,0.3,0.7,0.5c0.8,0.1-0.6-0.4,0.4-0.5c0.7,0.1,1.1,0,2-0.2c0.5,0.1-0.1,0.2,0.1,0.3l0.4-0.3c0.1,0,0.1,0.1,0.1,0.1
						c0.4-0.1,0-0.3,0.6-0.4c0.1-0.4,1.1,0.5,1.8,0.1c0.2,0.1-0.1,0.2,0,0.3c0.9-0.3,0.8-0.2,1.6-0.5l0.7,0.2
						C68.3,2.5,69,2.2,69.5,2c-0.2-0.1-0.3-0.2-0.4-0.3l0.9-0.2c0.1,0.1,0,0.2-0.1,0.3c0.1,0,0.1-0.1,0.2-0.1
						c0.3,0.1,0.1,0.3-0.1,0.5c-0.1-0.1-0.2-0.1-0.3-0.2c-0.2,0.2-0.4,0.4-0.4,0.6c0.1,0,0.2-0.1,0.3-0.1c-0.1,0.1-0.1,0.1-0.1,0.1
						c0,0,0.1,0,0.3-0.1l0.2,0.4l0-0.1L71.1,3c0.8-0.4,1.5-0.9,2.8-1c-0.3,0.3-0.1,0.4-0.1,0.7c-0.4-0.3-1,0.1-1.7,0.1
						c0.3,0,0.3,0.2,0.2,0.2l1.2-0.3c0,0.3,0.3,0.2,0.6,0.3c-0.2-0.5,0.9-0.3,1.4-0.5c0,0.2-0.1,0.3-0.7,0.3
						c0.6,0.4,0.8-0.6,1.5-0.3c-0.1,0-0.2,0-0.3,0.1c0.3-0.1,1.2,0,1,0.1l-0.1,0c1,0.1,2.9,0,3-0.4c0,0.1-0.1,0.5-0.2,0.6l1.7-1.4
						c-0.1,0.4,0.4,1.2-0.4,1.4c0.2,0.1,0.5,0.1,1,0c-0.2-0.1-0.4-0.5-0.2-0.6c0.6,0.4,0.4,0.2,1.1,0.6c-0.2-0.1,0-0.7,0.4-0.6
						c-0.1,0.1,0,0.6-0.1,0.6l0.9-0.6c-0.2,0.1,0,0.5,0.2,0.6c-0.1-0.1,0.8,0,1,0l-0.4-0.1c1,0.1,1-0.8,2-0.8
						c-0.1,0.1-0.3,0.7,0.2,0.8c0.2-0.3,1.1-1.4,2-1.6l0.2,0.2L90,1.2c-0.4,0.4-1.6,1.3-2.3,1.7c0.4,0.1,0.1,0.2,0.7,0.2
						c0.2,0.2-0.3,0.2-0.5,0.2l1.3,0.1c-0.1-0.3,1-0.3,1-0.6l-1.5,0.3c-0.1-0.3,0.8-1,1.8-0.9c0.2,0.1-0.2,0.6-0.2,0.7
						c0.1-0.1,0.9-0.2,1-0.1L91,3c0.5,0.1,0.9-0.4,1.5-0.1c0.2,0,0.7,0.4,0.7,0.2c-0.4-0.4-0.4-1.6-0.2-1.9c0.1,0,1.2,0.4,1.4,0.6
						c0.4,0.3-0.5,0.7-0.2,1c0-0.1,0.2-0.2,0.3-0.2c0.2,0.1-0.1,0.3,0.4,0.2c0.1-0.3,1,0,0.2-0.3c0.5-0.1,0.5,0.1,1.1,0.1
						c-0.2-0.2,0.5-0.7,1-0.8c0,0.1,0.1,0.2,0.1,0.3c1,0,1.5,0.2,2.5,0.2c0.1,0.1,0.5,0.2,0.3,0.3c0.1-0.1,0.3-0.2,0.5-0.2
						c0.6,0.3-0.6,0-0.2,0.4c0-0.2,0.7-0.3,1.2-0.4c-0.1-0.3-1-0.1-1.4,0.1c0-0.4,0.7-0.9,1.7-1.1c0.8-0.1,0.3,0.3,0.5,0.2
						c1.5,0.1,1.2-0.7,2.5-0.4c0.5,0.3,0,0.5,0.1,0.7c-0.6,0.1-1-0.2-1.4-0.2l0.5,0.1c-0.2,0.1-0.6,0.2-0.9,0.1
						c0.4,0.2,2.5,0,3.6,0.3c0.2-0.1,0.5-0.2,0.4-0.3l-0.4,0c-0.3-0.2,0.7-0.3,0.2-0.4c0.5-0.2,1-0.4,1.7-0.3l0.1,0.3
						c0-0.1-0.4-0.2-0.6-0.1c0.3-0.1,1,0.4,1.3,0l-0.5-0.2c0.5-0.2,1.1-0.5,1.7-0.4c-0.3-0.3-0.1,0-0.6-0.3c0.4,0.4-1.5,0-0.9,0.4
						c-0.4-0.4-0.8-0.2-1.3-0.5c0,0.1,0.2,0.2-0.3,0.1c0,0-0.1,0.1-0.1,0.1c0,0,0,0,0,0c0,0,0,0,0,0c0,0,0,0,0,0
						c0.1,0,0.2,0.1,0.3,0.2c-0.2,0.2-1,0.2-1.3,0.3c-0.3,0,0.1-0.1,0-0.2l-0.4,0.2c0-0.2-0.8-0.4-0.1-0.5l-0.6,0
						c-0.4-0.1-0.9-0.2-1.2-0.1c-0.3,0-0.8,0.2-0.5,0.1l-1,0.1l0-0.1c-1,0-2,0.4-3.1,0c-0.3,0.1-0.7,0.1-1.2,0.1l-0.1-0.2
						c-0.4,0.1-1.3-0.2-1.5,0c-0.5-0.5-2.1-0.1-2.8-0.2l0,0.3c-0.5,0-1,0.1-1.6,0.2l0,0.2c-0.5,0.2-1.4-0.2-2.3-0.1
						c0.1-0.1,0.3-0.1,0.4,0c-1-0.5-2.2,0.4-3.1,0c-0.2,0.1-0.4,0.1-0.6,0c0,0,0,0,0.1,0c0,0-0.1,0-0.1,0c-0.1,0-0.2-0.1-0.3-0.1
						c0.1,0.1,0.2,0.1,0.3,0.1c-0.2,0-0.5,0-0.7,0.1L86,0.7c0,0,0,0-0.1,0c-0.3-0.1-0.2,0.1-0.1,0.3c-0.1,0-0.3,0.1-0.4,0.1
						c-0.2-0.4-0.7,0.1-1-0.3C84.3,1,83.1,1,83,1.4c0-0.1-0.1-0.1,0.1-0.1c-0.3,0-0.6-0.1-0.9,0L82.1,1l-0.7,0.4
						c-0.4-0.2-0.6-0.3-0.2-0.5c-1,0.4-0.8,0.1-1.6,0.5l0-0.2c-0.3,0-0.8,0.3-0.9,0.1c-0.6-0.4-3.2-0.1-4.9-0.4
						c0.3,0.6-0.8-0.3-0.8,0.2C73,1,72.7,0.9,73,0.8c-0.8,0.1-1.3-0.2-1.9,0.2c-0.1-0.1,0.2-0.2,0.1-0.3c-0.1,0-0.3,0.1-0.4,0
						c-0.1-0.1,0.1-0.1,0.3-0.2c-0.9,0-1,0.4-1,0.8c-0.4-0.2-0.7-0.2-1,0.1c-0.2-0.1-0.4-0.3,0.1-0.3c-0.3,0-1.8-0.2-1.9,0.1
						c-0.1-0.1-0.4,0-0.5,0c-0.7,0-0.7,0-1.4,0l0.2,0.1c-0.3,0.4-0.6,0.1-1.1,0.1l0,0c-1.2-0.3-0.5,0.1-1.7-0.2l0.1,0.2
						c-0.1,0.5-1.1-0.3-1.8-0.1l0.3,0.1c-0.4,0.2-1.1-0.7-1.5-0.8c-0.1,0,0.1-0.1,0.3-0.1c-1-0.3-0.1,0.3-0.9,0.4
						c-0.1-0.2,0.2-0.4-0.3-0.5c-0.3-0.1-1.5,0.6-2.2,0.2c0.2,0.1,0.3,0.3,0,0.4c-0.5,0-1.5-0.5-1.9-0.1c-0.1,0-0.1-0.1-0.1-0.1
						c-0.4,0.1-1.3,0.2-1.6,0.4c-0.4-0.8-2.6,0.4-2.5-0.4l-1.3,0l0-0.1c-0.8-0.1-1.1,0.1-1.4,0.3c-0.2-0.1-0.1-0.1,0-0.2
						c-1.2-0.2-1.3-0.1-2.3,0.3l-0.1-0.2c-0.3,0.1-1.7-0.4-2.9-0.1c0,0,0-0.1,0.1-0.1c-1.3,0.3-3.1-0.7-3.6,0.2l-0.9,0.2
						c1.1,0.1-0.2,0.4,0.3,0.5c-0.4,0.1-1.1-0.3-0.6-0.3l0.1,0c0.2-0.5-1.4-0.2-1.4-0.5c-2.2,0-4.3-0.2-6.4-0.3l0.2,0.4l-0.7,0
						c-0.2-0.1-0.3-0.3,0.3-0.3c-0.3-0.2-0.9,0.2-0.9,0.3c-1-0.1,0.4-0.4,0.1-0.4l-0.4,0l0.1,0c-0.3,0.1-0.4,0.3-1,0.3
						c-0.4-0.1-0.2-0.2-0.4-0.2c0,0-0.1,0-0.2,0l-0.9,0L27,1.1c-0.4,0.1-0.8,0-0.4,0.3c-0.6-0.5-3.4-0.2-3.7-0.3
						c-0.6,0.2-1.1,0.2-1.8,0.2c0.2,0.1,0.3,0.4-0.3,0.3c0.2-0.7-1.1-0.3-1.6-0.8c0.4,0.3-1.7,0.1-1,0.5c-0.5-0.1,0-0.3-0.4-0.4
						c-1.2,0.3-2.6-0.2-4-0.1c0,0.1,0.2,0.2-0.1,0.4l-0.8-0.4c-0.3,0-0.3,0.5-0.8,0.2c0.1,0.1,0.2,0.2,0,0.2
						C9.2,0.8,6.2,1.6,3.3,0.8C3.7,0.9,3.5,1,3.2,1c0.2,0,0,0.2,0,0.3L2,1C1.8,1.3,0.7,1,0.6,1.3L1,1.2C0.5,1.6,1.7,2.1,1.6,2.6
						c0.6-0.4,1.5,0.6,2.4,0C4.2,2.7,3.9,2.7,4,2.8C4.2,2.6,4.5,2.6,5,2.7L5,2.7C6.4,2.7,7.1,2.9,8.8,3L8.6,2.8C9,2.8,9.1,2.9,9.2,3
						c0.4-0.4-1,0-0.6-0.4c0.5,0.5,2.5,0,2.9,0.6c0.6,0-0.2-0.3,0.4-0.3L12,3l0.1-0.2c0.4,0,0.5,0.2,0.6,0.3c-0.1,0-0.2,0-0.3,0
						c0.5,0.2,1.3-0.1,1.5,0l-0.5-0.1c1.5-0.1,3.3,0.1,4.8-0.2L18,2.7c1.1-0.2,0.9,0.1,2.1,0l0,0c0.2-0.1,0.6-0.2,0.9-0.2
						c-0.3,0.1,0.6,0.3,0.2,0.4c1.2-0.2,0.6-0.2,1.4-0.6l0.2,0.2C23,2.4,23,2.4,23.6,2.3c-0.5,0.2,0.4,0.3-0.2,0.5
						c1.3,0.4,1.9-0.4,2.5,0.2c0.6-0.5-1.1-0.3-0.8-0.4c-0.3-0.2,0.5-0.4,0.9-0.3c0.4,0,0.7,0.7,1.7,0.6c-0.1,0-0.1,0-0.2,0
						c0.4,0.1,0.8-0.2,1.2,0c0.3-0.3,0.6,0,0.7-0.4l-0.9,0.1c0.5-0.1,1-0.6,1.9-0.3c-0.1,0.1-0.3,0.2-0.5,0.2c0.3,0.1,0.5-0.1,0.8,0
						C30.6,3,29.6,2.7,29,3c0.3,0.2,1.1-0.3,0.8,0.1c0.4-0.5,1,0.1,1.7-0.3l0,0.2c0.1,0,0.3-0.1,0.5-0.1l-0.4,0.3
						c0.6-0.3,1.1,0.2,1.6,0.1c-1.1,0-0.3-0.3-0.7-0.5c1.4-0.3,0.8,0.6,2.4,0.5c-0.2,0-0.8-0.1-0.5-0.3c0.3,0,0.7,0.1,0.9,0.3
						c1,0-0.2-0.2,0.3-0.4c0.4,0.3,0.5-0.1,1-0.2l0,0.2c1.2,0.2,0.3-0.5,1.4-0.3L37.5,3L38,2.9l-0.1,0.3c0.6-0.2,0.8-0.2,1.4-0.1
						c-0.1-0.2,0.1-0.4,0.6-0.4c0.4,0.1-0.2,0.2,0.5,0.2C40.3,3,40.1,3.2,39.8,3c0,0.1-0.2,0.2-0.2,0.2c0.4,0.2,1,0,1.2,0
						c-0.1,0-0.2,0-0.3-0.1l1.1-0.3c0.2,0.1,0,0.2-0.1,0.2c0.2,0,0.4-0.1,0.7-0.2c-0.1,0.2-0.1,0.4-0.5,0.5l1-0.2
						c0.1,0.1,0.5,0.2,0.4,0.3c0.6,0.1,1.4-0.4,2.1-0.2c0,0,0.1-0.1,0.3-0.1c0.7,0,1.3,0.3,2.2,0l0.5,0.4c0.7-0.1-0.6-0.4,0.4-0.6
						c0.8-0.1,0.3,0.3,0.6,0.4c0.4-0.2,1.1-0.5,1.8-0.3C50.7,3.2,50.5,3.2,50.3,3.2z M58.4,3c-0.2,0.1-0.5,0.2-0.6,0.1
						C58,2.8,58.1,2.9,58.4,3z M70.7,2.4c-0.1,0.1-0.3,0-0.5-0.1C70.3,2.4,70.5,2.4,70.7,2.4z M105,0.8C105,0.8,105,0.8,105,0.8
						C104.6,0.7,104.7,0.7,105,0.8z M105.7,0.9c0.1,0,0.1-0.1,0-0.1c-0.1,0.1-0.2,0.1-0.4,0C105.4,0.9,105.5,0.9,105.7,0.9z M27.7,1
						L27.8,1C27.5,1.1,27.6,1,27.7,1z"/>
					<path fill="#D9342A" d="M69.3,2.8c0,0-0.1-0.1-0.1-0.1C69.2,2.7,69.2,2.7,69.3,2.8z"/>
					<path fill="#D9342A" d="M45.2,3.3C45.2,3.3,45.2,3.3,45.2,3.3C45.2,3.3,45.2,3.3,45.2,3.3L45.2,3.3z"/>
					<path fill="#D9342A" d="M94.4,2.9c-0.1,0-0.2-0.1-0.3-0.1C94.1,2.8,94.2,2.9,94.4,2.9z"/>
					<path fill="#D9342A" d="M109.6,0.5l-0.5,0.1c0.2,0,0.3,0,0.4,0.1C109.5,0.5,109.4,0.5,109.6,0.5z"/>
					<path fill="#D9342A" d="M113.6,2c0.1,0,0.1,0,0.2,0l0-0.1C113.5,1.8,113.3,1.9,113.6,2z"/>
					<path fill="#D9342A" d="M110,1.3c0,0.2,0.3,0.1,0.7,0.1c0,0,0,0-0.1,0C110.7,1.1,110.3,1.2,110,1.3z"/>
					<path fill="#D9342A" d="M110.7,1.3c0.1,0,0.2,0,0.3,0C111.1,1.2,110.9,1.3,110.7,1.3z"/>
					<path fill="#D9342A" d="M106.6,0.7c0.2,0.1,0.1-0.3,0.2-0.2C107,0.3,105.8,0.9,106.6,0.7z"/>
					<polygon fill="#D9342A" points="110.3,1.9 110.1,1.7 110,1.9 					"/>
					<path fill="#D9342A" d="M107.7,1.7l0.5,0.1c0,0,0.1-0.1,0.1-0.1C108,1.7,107.7,1.7,107.7,1.7z"/>
					<path fill="#D9342A" d="M108.3,1.7c0.2,0,0.3,0,0.4,0C108.7,1.7,108.5,1.7,108.3,1.7z"/>
					<polygon fill="#D9342A" points="109.5,2 109.4,2 109,1.9 					"/>
					<path fill="#D9342A" d="M102.1,1.7l-0.6,0.1c-0.1,0.1,0.1,0.1,0.3,0.1C101.9,1.8,102.2,1.8,102.1,1.7z"/>
					<path fill="#D9342A" d="M103.8,2.4c-0.2-0.1-0.2-0.1-0.3-0.2l0,0.3L103.8,2.4z"/>
					<path fill="#D9342A" d="M102.1,2.5c-0.1,0.1-0.8,0.2-0.1,0.2C102.1,2.6,102.7,2.5,102.1,2.5z"/>
					<polygon fill="#D9342A" points="93.6,2.1 93.7,2.1 93.7,1.5 					"/>
					<path fill="#D9342A" d="M86,3.3c0.7,0.1,0.2-0.3,0.8-0.2C86.9,3,86.3,3,86.4,2.9C86,3,85.8,2.9,86,3.3z"/>
					<path fill="#D9342A" d="M86.4,2.9c0.1,0,0.1,0,0.2-0.1C86.5,2.8,86.5,2.9,86.4,2.9z"/>
					<polygon fill="#D9342A" points="1.2,0.7 0.8,0.6 1,0.8 					"/>
					<path fill="#D9342A" d="M0.4,1.1L0.3,0.8L0,1.1C0.1,1,0.3,1,0.4,1.1z"/>
					<path fill="#D9342A" d="M59.6,3.7L59.6,3.7c0-0.2-0.1-0.2-0.3-0.2L59.6,3.7z"/>
					<polygon fill="#D9342A" points="53.7,3.4 53.8,3.4 53.6,3.1 					"/>
					<path fill="#D9342A" d="M48.8,3.8c0.2,0,0.4-0.1,0.6,0C49,3.8,48.7,3.4,48.8,3.8z"/>
				</g>
			</g>
		</g>
	</g>
</g>
</svg>
