<!-- Generator: Adobe Illustrator 19.2.1, SVG Export Plug-In  -->
<svg version="1.1"
	 xmlns="http://www.w3.org/2000/svg" xmlns:xlink="http://www.w3.org/1999/xlink" xmlns:a="http://ns.adobe.com/AdobeSVGViewerExtensions/3.0/"
	 x="0px" y="0px" width="47px" height="32.7px" viewBox="0 0 47 32.7" enable-background="new 0 0 47 32.7" xml:space="preserve">
<defs>
</defs>
<g>
	<path fill="#BCBEC0" d="M44.9,28.6H2.1c-1.1,0-2.1,0.9-2.1,2.1s0.9,2.1,2.1,2.1h42.9c1.1,0,2.1-0.9,2.1-2.1S46.1,28.6,44.9,28.6z"
		/>
	<path fill="#BCBEC0" d="M44.9,0H2.1C0.9,0,0,0.9,0,2.1s0.9,2.1,2.1,2.1h42.9c1.1,0,2.1-0.9,2.1-2.1S46.1,0,44.9,0z"/>
	<path fill="#BCBEC0" d="M44.9,14.3H2.1c-1.1,0-2.1,0.9-2.1,2.1s0.9,2.1,2.1,2.1h42.9c1.1,0,2.1-0.9,2.1-2.1S46.1,14.3,44.9,14.3z"
		/>
</g>
</svg>
