<!-- Generator: Adobe Illustrator 19.2.1, SVG Export Plug-In  -->
<svg version="1.1"
	 xmlns="http://www.w3.org/2000/svg" xmlns:xlink="http://www.w3.org/1999/xlink" xmlns:a="http://ns.adobe.com/AdobeSVGViewerExtensions/3.0/"
	 x="0px" y="0px" width="16px" height="16px" viewBox="0 0 16 16" enable-background="new 0 0 16 16" xml:space="preserve">
<defs>
</defs>
<g>
	<path fill="#D1D3D4" d="M7.9,0C3.5,0.1-0.1,3.7,0,8.1c0.1,4.4,3.7,8,8.1,7.9c4.4-0.1,8-3.7,7.9-8.1C15.9,3.5,12.3-0.1,7.9,0z
		 M8.8,2.7c0.8,0,1.1,0.5,1.1,1C9.8,4.4,9.3,5,8.4,5c-0.8,0-1.1-0.4-1.1-1C7.3,3.4,7.7,2.7,8.8,2.7z M6.7,13c-0.6,0-1-0.3-0.6-1.8
		l0.6-2.6C6.9,8.1,6.9,8,6.8,8C6.6,8,5.9,8.3,5.4,8.5L5.2,8.1C6.5,7,8.1,6.3,8.7,6.3c0.6,0,0.6,0.7,0.4,1.7l-0.7,2.8
		c-0.1,0.5-0.1,0.7,0.1,0.7c0.2,0,0.7-0.2,1.2-0.6l0.3,0.4C8.7,12.5,7.3,13,6.7,13z"/>
</g>
</svg>
