<!-- Generator: Adobe Illustrator 19.2.1, SVG Export Plug-In  -->
<svg version="1.1"
	 xmlns="http://www.w3.org/2000/svg" xmlns:xlink="http://www.w3.org/1999/xlink" xmlns:a="http://ns.adobe.com/AdobeSVGViewerExtensions/3.0/"
	 x="0px" y="0px" width="52.9px" height="52.9px" viewBox="0 0 52.9 52.9" enable-background="new 0 0 52.9 52.9"
	 xml:space="preserve">
<defs>
</defs>
<g>
	<path fill="#FFFFFF" d="M35.1,17.5h-1.8c-0.3,0-0.6,0.3-0.6,0.6v1.8c0,0.3,0.3,0.6,0.6,0.6h1.8c0.3,0,0.6-0.3,0.6-0.6v-1.8
		C35.7,17.8,35.4,17.5,35.1,17.5z"/>
	<path fill="#FFFFFF" d="M26.4,0C11.8,0,0,11.8,0,26.4C0,41,11.8,52.9,26.4,52.9C41,52.9,52.9,41,52.9,26.4C52.9,11.8,41,0,26.4,0z
		 M37.4,33.7c0,1.8-1.5,3.3-3.3,3.3H19.5c-1.8,0-3.3-1.5-3.3-3.3v-8.5h4.3c-0.1,0.4-0.1,0.8-0.1,1.2c0,3.5,2.9,6.4,6.4,6.4
		c3.5,0,6.4-2.9,6.4-6.4c0-0.4,0-0.8-0.1-1.2h4.3V33.7z M22.8,26.4c0-2.2,1.8-3.9,3.9-3.9c2.2,0,3.9,1.8,3.9,3.9s-1.8,3.9-3.9,3.9
		C24.6,30.4,22.8,28.6,22.8,26.4z M37.4,22.7H32C30.9,21.1,29,20,26.8,20c-2.2,0-4.1,1.1-5.2,2.7h-5.4v-3.6c0-1.8,1.5-3.3,3.3-3.3
		h14.6c1.8,0,3.3,1.5,3.3,3.3V22.7z"/>
</g>
</svg>
